<svg width="30" height="30" viewBox="0 0 30 30" fill="none" xmlns="http://www.w3.org/2000/svg">
<path d="M18.3 16.9875H24.675V15.1125H18.3V16.9875ZM18.3 21.225H24.675V19.35H18.3V21.225ZM18.9 7.5H27.75C28.35 7.5 28.875 7.725 29.325 8.175C29.775 8.625 30 9.15 30 9.75V27.75C30 28.35 29.775 28.875 29.325 29.325C28.875 29.775 28.35 30 27.75 30H2.25C1.65 30 1.125 29.775 0.675 29.325C0.225 28.875 0 28.35 0 27.75V9.75C0 9.15 0.225 8.625 0.675 8.175C1.125 7.725 1.65 7.5 2.25 7.5H11.1375V2.25C11.1375 1.65 11.3625 1.125 11.8125 0.675C12.2625 0.225 12.7875 0 13.3875 0H16.65C17.25 0 17.775 0.225 18.225 0.675C18.675 1.125 18.9 1.65 18.9 2.25V7.5ZM13.3875 9.75H16.65V2.25H13.3875V9.75ZM10.275 19.35C10.85 19.35 11.3313 19.15 11.7188 18.75C12.1062 18.35 12.3 17.875 12.3 17.325C12.3 16.75 12.1062 16.2687 11.7188 15.8812C11.3313 15.4937 10.85 15.3 10.275 15.3C9.725 15.3 9.25 15.4937 8.85 15.8812C8.45 16.2687 8.25 16.75 8.25 17.325C8.25 17.875 8.45 18.35 8.85 18.75C9.25 19.15 9.725 19.35 10.275 19.35ZM5.7 23.7375H14.6625V23.2125C14.6625 22.7625 14.55 22.3625 14.325 22.0125C14.1 21.6625 13.8125 21.425 13.4625 21.3C12.6625 21.025 12.0375 20.8438 11.5875 20.7562C11.1375 20.6687 10.7 20.625 10.275 20.625C9.8 20.625 9.29375 20.6812 8.75625 20.7938C8.21875 20.9062 7.6125 21.075 6.9375 21.3C6.5625 21.425 6.2625 21.6625 6.0375 22.0125C5.8125 22.3625 5.7 22.7625 5.7 23.2125V23.7375ZM11.1375 9.75H2.25V27.75H27.75V9.75H18.9C18.9 10.45 18.6687 11 18.2062 11.4C17.7437 11.8 17.1625 12 16.4625 12H13.5375C12.8625 12 12.2937 11.8 11.8312 11.4C11.3687 11 11.1375 10.45 11.1375 9.75Z" fill="black"/>
</svg>
