<svg width="147" height="177" viewBox="0 0 147 177" fill="none" xmlns="http://www.w3.org/2000/svg">
<path d="M48.8979 125C45.771 125 43.1131 123.905 40.9242 121.715C38.7354 119.524 37.6409 116.865 37.6409 113.736C37.6409 110.607 38.7354 107.947 40.9242 105.757C43.1131 103.567 45.771 102.472 48.8979 102.472C51.9206 102.472 54.5525 103.567 56.7934 105.757C59.0344 107.947 60.1549 110.607 60.1549 113.736C60.1549 116.865 59.0605 119.524 56.8716 121.715C54.6828 123.905 52.0249 125 48.8979 125ZM111.437 125C108.31 125 105.652 123.905 103.463 121.715C101.274 119.524 100.18 116.865 100.18 113.736C100.18 110.607 101.274 107.947 103.463 105.757C105.652 103.567 108.31 102.472 111.437 102.472C114.459 102.472 117.091 103.567 119.332 105.757C121.573 107.947 122.694 110.607 122.694 113.736C122.694 116.865 121.599 119.524 119.41 121.715C117.222 123.905 114.564 125 111.437 125ZM40.7679 21.7459L57.966 57.4155H102.994L122.537 21.7459H40.7679ZM36.0775 12.3592H128.166C131.501 12.3592 133.612 13.3761 134.498 15.4099C135.384 17.4437 135.097 19.7121 133.638 22.2153L112.531 60.2315C111.489 62.0046 110.03 63.543 108.153 64.8467C106.277 66.1504 104.245 66.8023 102.056 66.8023H54.6828L45.9273 83.0726H122.694V92.4593H47.3344C42.9567 92.4593 39.8037 90.9992 37.8754 88.0788C35.9472 85.1585 35.9732 81.8732 37.9536 78.2228L47.9598 59.7622L24.1951 9.38673H12V0H30.2926L36.0775 12.3592ZM57.966 57.4155H102.994H57.966Z" fill="url(#paint0_linear_68_323)"/>
<path d="M1.184 156.832C1.184 154.656 1.68533 152.704 2.688 150.976C3.712 149.248 5.088 147.904 6.816 146.944C8.56533 145.963 10.4747 145.472 12.544 145.472C14.912 145.472 17.0133 146.059 18.848 147.232C20.704 148.384 22.048 150.027 22.88 152.16H18.496C17.92 150.987 17.12 150.112 16.096 149.536C15.072 148.96 13.888 148.672 12.544 148.672C11.072 148.672 9.76 149.003 8.608 149.664C7.456 150.325 6.54933 151.275 5.888 152.512C5.248 153.749 4.928 155.189 4.928 156.832C4.928 158.475 5.248 159.915 5.888 161.152C6.54933 162.389 7.456 163.349 8.608 164.032C9.76 164.693 11.072 165.024 12.544 165.024C13.888 165.024 15.072 164.736 16.096 164.16C17.12 163.584 17.92 162.709 18.496 161.536H22.88C22.048 163.669 20.704 165.312 18.848 166.464C17.0133 167.616 14.912 168.192 12.544 168.192C10.4533 168.192 8.544 167.712 6.816 166.752C5.088 165.771 3.712 164.416 2.688 162.688C1.68533 160.96 1.184 159.008 1.184 156.832ZM34.948 168.288C33.284 168.288 31.78 167.915 30.436 167.168C29.092 166.4 28.036 165.333 27.268 163.968C26.5 162.581 26.116 160.981 26.116 159.168C26.116 157.376 26.5107 155.787 27.3 154.4C28.0893 153.013 29.1667 151.947 30.532 151.2C31.8973 150.453 33.4227 150.08 35.108 150.08C36.7933 150.08 38.3187 150.453 39.684 151.2C41.0493 151.947 42.1267 153.013 42.916 154.4C43.7053 155.787 44.1 157.376 44.1 159.168C44.1 160.96 43.6947 162.549 42.884 163.936C42.0733 165.323 40.964 166.4 39.556 167.168C38.1693 167.915 36.6333 168.288 34.948 168.288ZM34.948 165.12C35.8867 165.12 36.7613 164.896 37.572 164.448C38.404 164 39.076 163.328 39.588 162.432C40.1 161.536 40.356 160.448 40.356 159.168C40.356 157.888 40.1107 156.811 39.62 155.936C39.1293 155.04 38.4787 154.368 37.668 153.92C36.8573 153.472 35.9827 153.248 35.044 153.248C34.1053 153.248 33.2307 153.472 32.42 153.92C31.6307 154.368 31.0013 155.04 30.532 155.936C30.0627 156.811 29.828 157.888 29.828 159.168C29.828 161.067 30.308 162.539 31.268 163.584C32.2493 164.608 33.476 165.12 34.948 165.12ZM56.7522 150.08C58.1389 150.08 59.3762 150.368 60.4642 150.944C61.5736 151.52 62.4376 152.373 63.0562 153.504C63.6749 154.635 63.9843 156 63.9843 157.6V168H60.3682V158.144C60.3682 156.565 59.9736 155.36 59.1842 154.528C58.3949 153.675 57.3176 153.248 55.9522 153.248C54.5869 153.248 53.4989 153.675 52.6882 154.528C51.8989 155.36 51.5042 156.565 51.5042 158.144V168H47.8562V150.368H51.5042V152.384C52.1016 151.659 52.8589 151.093 53.7762 150.688C54.7149 150.283 55.7069 150.08 56.7522 150.08ZM70.6435 148.032C69.9822 148.032 69.4275 147.808 68.9795 147.36C68.5315 146.912 68.3075 146.357 68.3075 145.696C68.3075 145.035 68.5315 144.48 68.9795 144.032C69.4275 143.584 69.9822 143.36 70.6435 143.36C71.2835 143.36 71.8275 143.584 72.2755 144.032C72.7235 144.48 72.9475 145.035 72.9475 145.696C72.9475 146.357 72.7235 146.912 72.2755 147.36C71.8275 147.808 71.2835 148.032 70.6435 148.032ZM72.4355 171.456C72.4355 173.184 71.9982 174.432 71.1235 175.2C70.2702 175.989 69.0222 176.384 67.3795 176.384H65.4915V173.312H66.7395C67.4862 173.312 68.0088 173.163 68.3075 172.864C68.6275 172.587 68.7875 172.117 68.7875 171.456V150.368H72.4355V171.456ZM93.343 150.368V168H89.695V165.92C89.119 166.645 88.3617 167.221 87.423 167.648C86.5057 168.053 85.5243 168.256 84.479 168.256C83.0923 168.256 81.8443 167.968 80.735 167.392C79.647 166.816 78.783 165.963 78.143 164.832C77.5243 163.701 77.215 162.336 77.215 160.736V150.368H80.831V160.192C80.831 161.771 81.2257 162.987 82.015 163.84C82.8043 164.672 83.8817 165.088 85.247 165.088C86.6123 165.088 87.6897 164.672 88.479 163.84C89.2897 162.987 89.695 161.771 89.695 160.192V150.368H93.343ZM107.202 150.08C108.589 150.08 109.826 150.368 110.914 150.944C112.024 151.52 112.888 152.373 113.506 153.504C114.125 154.635 114.434 156 114.434 157.6V168H110.818V158.144C110.818 156.565 110.424 155.36 109.634 154.528C108.845 153.675 107.768 153.248 106.402 153.248C105.037 153.248 103.949 153.675 103.138 154.528C102.349 155.36 101.954 156.565 101.954 158.144V168H98.3063V150.368H101.954V152.384C102.552 151.659 103.309 151.093 104.226 150.688C105.165 150.283 106.157 150.08 107.202 150.08ZM126.214 159.2L134.342 168H129.414L122.886 160.416V168H119.238V144.32H122.886V158.08L129.286 150.368H134.342L126.214 159.2ZM141.362 153.344V163.104C141.362 163.765 141.512 164.245 141.81 164.544C142.13 164.821 142.664 164.96 143.41 164.96H145.65V168H142.77C141.128 168 139.869 167.616 138.994 166.848C138.12 166.08 137.682 164.832 137.682 163.104V153.344H135.602V150.368H137.682V145.984H141.362V150.368H145.65V153.344H141.362Z" fill="url(#paint1_linear_68_323)"/>
<defs>
<linearGradient id="paint0_linear_68_323" x1="167" y1="31.5" x2="-7.99999" y2="92.5" gradientUnits="userSpaceOnUse">
<stop offset="0.269933" stop-color="#85DB46"/>
<stop offset="0.806679" stop-color="#66A836"/>
</linearGradient>
<linearGradient id="paint1_linear_68_323" x1="154.5" y1="153.5" x2="-21.5" y2="157" gradientUnits="userSpaceOnUse">
<stop offset="0.235246" stop-color="#85DB46"/>
<stop offset="0.738426" stop-color="#66A836"/>
</linearGradient>
</defs>
</svg>
