<svg width="22" height="20" viewBox="0 0 22 20" fill="none" xmlns="http://www.w3.org/2000/svg">
<path d="M11 9.66184C9.4875 9.66184 8.25 9.21095 7.2875 8.30918C6.325 7.40741 5.84375 6.24799 5.84375 4.83092C5.84375 3.41385 6.325 2.25443 7.2875 1.35266C8.25 0.450886 9.4875 0 11 0C12.5125 0 13.75 0.450886 14.7125 1.35266C15.675 2.25443 16.1562 3.41385 16.1562 4.83092C16.1562 6.24799 15.675 7.40741 14.7125 8.30918C13.75 9.21095 12.5125 9.66184 11 9.66184ZM0 20V16.9726C0 16.1567 0.217708 15.4589 0.653125 14.8792C1.08854 14.2995 1.65 13.8594 2.3375 13.5588C3.87292 12.9147 5.34531 12.4316 6.75469 12.1095C8.16406 11.7874 9.57917 11.6264 11 11.6264C12.4208 11.6264 13.8302 11.7928 15.2281 12.1256C16.626 12.4584 18.0927 12.9361 19.6281 13.5588C20.3385 13.8594 20.9115 14.2995 21.3469 14.8792C21.7823 15.4589 22 16.1567 22 16.9726V20H0ZM2.0625 18.0676H19.9375V16.9726C19.9375 16.6291 19.8286 16.3017 19.6109 15.9903C19.3932 15.679 19.124 15.4482 18.8031 15.2979C17.3365 14.6323 15.9958 14.1761 14.7812 13.9291C13.5667 13.6822 12.3062 13.5588 11 13.5588C9.69375 13.5588 8.42188 13.6822 7.18438 13.9291C5.94688 14.1761 4.60625 14.6323 3.1625 15.2979C2.84167 15.4482 2.57812 15.679 2.37187 15.9903C2.16562 16.3017 2.0625 16.6291 2.0625 16.9726V18.0676ZM11 7.72947C11.8938 7.72947 12.6328 7.45572 13.2172 6.90821C13.8016 6.36071 14.0938 5.66828 14.0938 4.83092C14.0938 3.99356 13.8016 3.30113 13.2172 2.75362C12.6328 2.20612 11.8938 1.93237 11 1.93237C10.1062 1.93237 9.36719 2.20612 8.78281 2.75362C8.19844 3.30113 7.90625 3.99356 7.90625 4.83092C7.90625 5.66828 8.19844 6.36071 8.78281 6.90821C9.36719 7.45572 10.1062 7.72947 11 7.72947Z" fill="black"/>
</svg>
