<svg width="27" height="32" viewBox="0 0 27 32" fill="none" xmlns="http://www.w3.org/2000/svg">
<path d="M13.5 0C15.7219 0 17.6133 0.704762 19.1742 2.11429C20.7352 3.52381 21.5156 5.23175 21.5156 7.2381V10.8952H24.4688C25.1719 10.8952 25.7695 11.1175 26.2617 11.5619C26.7539 12.0063 27 12.546 27 13.181V29.7143C27 30.3492 26.7539 30.8889 26.2617 31.3333C25.7695 31.7778 25.1719 32 24.4688 32H2.53125C1.82812 32 1.23047 31.7778 0.738281 31.3333C0.246094 30.8889 0 30.3492 0 29.7143V13.181C0 12.546 0.246094 12.0063 0.738281 11.5619C1.23047 11.1175 1.82812 10.8952 2.53125 10.8952H5.48438V7.2381C5.48438 5.23175 6.26484 3.52381 7.82578 2.11429C9.38672 0.704762 11.2781 0 13.5 0ZM13.5 2.28571C11.9812 2.28571 10.6875 2.76825 9.61875 3.73333C8.55 4.69841 8.01562 5.86667 8.01562 7.2381V10.8952H18.9844V7.2381C18.9844 5.86667 18.45 4.69841 17.3813 3.73333C16.3125 2.76825 15.0188 2.28571 13.5 2.28571ZM2.53125 29.7143H24.4688V13.181H2.53125V29.7143ZM13.5 18.5143C12.6 18.5143 11.8336 18.8254 11.2008 19.4476C10.568 20.0698 10.2516 20.7619 10.2516 21.5238C10.2516 22.3111 10.568 22.9841 11.2008 23.5429C11.8336 24.1016 12.6 24.381 13.5 24.381C14.4 24.381 15.1664 24.1016 15.7992 23.5429C16.432 22.9841 16.7484 22.3111 16.7484 21.5238C16.7484 20.7619 16.432 20.0698 15.7992 19.4476C15.1664 18.8254 14.4 18.5143 13.5 18.5143ZM2.53125 13.181V29.7143V13.181Z" fill="black"/>
</svg>
