<svg width="107" height="108" viewBox="0 0 107 108" fill="none" xmlns="http://www.w3.org/2000/svg">
<path d="M0 10C0 4.47715 4.47715 0 10 0H97C102.523 0 107 4.47715 107 10V98C107 103.523 102.523 108 97 108H10C4.47715 108 0 103.523 0 98V10Z" fill="white"/>
<path d="M36.8625 92.4031C34.925 92.4031 33.2781 91.725 31.9219 90.3688C30.5656 89.0125 29.8875 87.3656 29.8875 85.4281C29.8875 83.4906 30.5656 81.8437 31.9219 80.4875C33.2781 79.1312 34.925 78.4531 36.8625 78.4531C38.7354 78.4531 40.3661 79.1312 41.7547 80.4875C43.1432 81.8437 43.8375 83.4906 43.8375 85.4281C43.8375 87.3656 43.1594 89.0125 41.8031 90.3688C40.4469 91.725 38.8 92.4031 36.8625 92.4031ZM75.6125 92.4031C73.675 92.4031 72.0281 91.725 70.6719 90.3688C69.3156 89.0125 68.6375 87.3656 68.6375 85.4281C68.6375 83.4906 69.3156 81.8437 70.6719 80.4875C72.0281 79.1312 73.675 78.4531 75.6125 78.4531C77.4854 78.4531 79.1161 79.1312 80.5047 80.4875C81.8932 81.8437 82.5875 83.4906 82.5875 85.4281C82.5875 87.3656 81.9094 89.0125 80.5531 90.3688C79.1969 91.725 77.55 92.4031 75.6125 92.4031ZM31.825 28.4656L42.4812 50.5531H70.3813L82.4906 28.4656H31.825ZM28.9187 22.6531H85.9781C88.0448 22.6531 89.3526 23.2828 89.9016 24.5422C90.4505 25.8016 90.2729 27.2063 89.3688 28.7562L76.2906 52.2969C75.6448 53.3948 74.7406 54.3474 73.5781 55.1547C72.4156 55.962 71.1563 56.3656 69.8 56.3656H40.4469L35.0219 66.4406H82.5875V72.2531H35.8938C33.1812 72.2531 31.2276 71.349 30.0328 69.5406C28.838 67.7323 28.8542 65.6979 30.0813 63.4375L36.2812 52.0062L21.5562 20.8125H14V15H25.3344L28.9187 22.6531ZM42.4812 50.5531H70.3813H42.4812Z" fill="black"/>
</svg>
