<svg width="107" height="108" viewBox="0 0 107 108" fill="none" xmlns="http://www.w3.org/2000/svg">
<path d="M0 10C0 4.47715 4.47715 0 10 0H97C102.523 0 107 4.47715 107 10V98C107 103.523 102.523 108 97 108H10C4.47715 108 0 103.523 0 98V10Z" fill="white"/>
<path d="M17.8889 24.75V18H89.2222V24.75H17.8889ZM18.4444 90V60.975H13V54.225L17.8889 31.5H89.1111L94 54.225V60.975H88.5555V90H81.8889V60.975H60.8889V90H18.4444ZM25.1111 83.25H54.2222V60.975H25.1111V83.25ZM19.5556 54.225H87.4444H19.5556ZM19.5556 54.225H87.4444L84 38.25H23L19.5556 54.225Z" fill="black"/>
</svg>
