<svg width="360" height="142" viewBox="0 0 360 142" fill="none" xmlns="http://www.w3.org/2000/svg">
<path d="M63.2752 28.8414C50.3285 25.3163 48.8886 9.71048 35.7245 7.25882C6.44218 1.80537 12.5238 84.3396 12.5238 84.3396L54.575 140.609C73.9089 143.949 147.668 143.383 288.032 114.401C428.396 85.4187 331.533 48.8824 265.556 34.2371C199.579 19.5917 242.153 40.5057 227.13 38.8619C210.382 37.0294 203.322 24.7348 186.529 23.4458C165.426 21.8259 155.358 41.3214 134.327 38.8619C119.171 37.0895 113.242 25.1256 98.0762 23.4458C84.4158 21.9327 76.5802 32.4641 63.2752 28.8414Z" fill="url(#paint0_linear_40_329)"/>
<path opacity="0.5" d="M51.2752 20.5471C38.3285 17.2309 36.8886 2.54986 23.7245 0.243484C-5.55782 -4.8868 0.523796 72.7565 0.523796 72.7565L42.575 125.691C61.9089 128.833 135.668 128.301 276.032 101.037C416.396 73.7717 319.533 39.4005 253.556 25.623C187.579 11.8456 230.153 31.5202 215.13 29.9738C198.382 28.2499 191.322 16.6839 174.529 15.4712C153.426 13.9473 143.358 32.2876 122.327 29.9738C107.171 28.3064 101.242 17.0515 86.0762 15.4712C72.4158 14.0478 64.5802 23.9551 51.2752 20.5471Z" fill="url(#paint1_linear_40_329)"/>
<defs>
<linearGradient id="paint0_linear_40_329" x1="186" y1="7" x2="186" y2="142" gradientUnits="userSpaceOnUse">
<stop stop-color="#66A836"/>
<stop offset="1" stop-color="#AFE18C"/>
</linearGradient>
<linearGradient id="paint1_linear_40_329" x1="174" y1="0" x2="174" y2="127" gradientUnits="userSpaceOnUse">
<stop stop-color="#66A836"/>
<stop offset="1" stop-color="#AFE18C"/>
</linearGradient>
</defs>
</svg>
